<?xml version="1.0" standalone="no"?>
<!DOCTYPE svg PUBLIC "-//W3C//DTD SVG 20010904//EN"
 "http://www.w3.org/TR/2001/REC-SVG-20010904/DTD/svg10.dtd">
<svg version="1.0" xmlns="http://www.w3.org/2000/svg"
 width="1656.000000pt" height="804.000000pt" viewBox="0 0 1656.000000 804.000000"
 preserveAspectRatio="xMidYMid meet">

<g transform="translate(0.000000,804.000000) scale(0.100000,-0.100000)"
fill="#000000" stroke="none">
<path d="M3543 7093 c-209 -208 -407 -412 -440 -453 -64 -82 -127 -196 -166
-302 -129 -343 -77 -763 131 -1058 44 -61 210 -234 885 -914 158 -160 286
-293 285 -296 -8 -15 -1526 -1520 -1534 -1520 -5 0 -190 181 -411 402 -307
308 -413 421 -451 481 -167 257 -186 566 -53 837 52 105 81 148 148 221 72 79
195 203 249 252 l41 37 359 -354 359 -353 -137 -139 -138 -139 -217 218 -218
219 -28 -34 c-15 -18 -46 -69 -68 -113 -49 -99 -60 -184 -35 -288 32 -138 48
-159 314 -423 135 -134 251 -244 257 -244 14 0 929 925 933 943 1 6 -310 324
-691 705 l-693 693 -331 -338 c-182 -186 -348 -358 -369 -383 -94 -113 -190
-287 -240 -437 -50 -148 -58 -206 -58 -408 0 -164 4 -203 23 -285 42 -172 113
-336 209 -485 58 -90 1215 -1255 1247 -1255 13 0 510 490 1462 1443 794 793
1446 1441 1449 1441 4 -1 67 -62 142 -135 249 -247 332 -389 367 -628 14 -93
15 -127 5 -198 -21 -161 -85 -321 -173 -438 -25 -33 -494 -508 -1041 -1055
l-996 -995 -128 125 c-71 69 -131 130 -134 136 -4 6 436 453 977 995 685 685
995 1003 1022 1045 56 88 87 199 80 285 -7 79 -51 191 -103 263 l-36 49 -171
-169 c-526 -521 -2457 -2455 -2457 -2460 0 -16 936 -944 951 -944 9 0 542 528
1184 1172 1243 1250 1278 1287 1370 1473 97 199 139 376 139 595 0 265 -58
477 -192 707 -67 114 -130 185 -475 531 l-332 332 -510 -510 c-281 -280 -515
-510 -521 -510 -5 0 -262 253 -570 563 -614 614 -596 594 -644 762 -22 78 -27
225 -10 316 12 65 74 195 129 267 48 65 419 452 433 452 19 0 405 -396 445
-457 78 -118 119 -293 102 -437 -13 -120 -13 -120 -115 -9 -49 54 -137 148
-195 208 -58 61 -136 142 -172 180 l-67 70 -23 -26 c-167 -195 -172 -204 -171
-329 0 -71 5 -103 18 -128 15 -30 133 -152 633 -662 l142 -145 62 60 c77 76
178 204 223 283 41 73 88 197 117 312 28 110 31 373 6 487 -56 247 -171 448
-377 653 -52 52 -215 214 -361 359 l-266 263 -380 -379z"/>
<path d="M7420 5921 l-84 -6 2 -335 c1 -184 2 -469 2 -633 l0 -298 123 3 122
3 5 369 5 369 115 -238 c70 -145 129 -254 151 -279 34 -38 40 -41 88 -40 79 1
104 33 211 273 21 47 60 131 87 186 l48 100 5 -370 5 -370 123 -3 122 -3 0
636 0 636 -122 -3 -123 -3 -100 -200 c-55 -110 -135 -274 -178 -364 -43 -90
-79 -162 -81 -160 -6 6 -129 255 -217 439 -149 311 -138 295 -184 296 -22 0
-78 -2 -125 -5z"/>
<path d="M14178 5923 l-408 -3 0 -508 c0 -551 2 -576 55 -652 34 -49 105 -85
195 -100 36 -5 183 -10 327 -10 l263 0 5 23 c3 12 5 60 3 107 l-3 85 -273 5
c-257 5 -275 6 -288 25 -24 33 -34 86 -34 186 l0 97 63 6 c34 3 122 6 196 5
73 0 135 2 137 4 7 7 23 200 18 209 -3 4 -97 8 -210 8 l-204 0 0 145 0 145 38
1 c20 0 150 1 289 2 138 1 255 6 259 10 4 4 8 53 8 110 1 84 -2 102 -14 102
-8 0 -198 -1 -422 -2z"/>
<path d="M15152 5922 l-43 -3 3 -107 3 -107 168 0 167 0 0 -520 c0 -392 3
-524 12 -533 13 -13 202 -17 232 -6 14 5 16 62 16 533 l0 526 158 -1 c86 -1
163 1 170 4 8 3 12 35 12 114 l0 109 -427 -3 c-236 -1 -447 -4 -471 -6z"/>
<path d="M9522 5894 c-47 -38 -66 -81 -201 -469 -67 -192 -151 -432 -186 -531
-36 -100 -68 -196 -71 -213 l-6 -31 126 0 c146 0 126 -16 173 140 l29 95 188
3 c104 2 199 1 211 -2 19 -5 29 -25 59 -121 20 -63 42 -115 49 -116 37 -2 233
3 236 7 6 6 -9 57 -49 169 -18 50 -81 230 -140 400 -229 657 -222 639 -266
674 -39 31 -109 28 -152 -5z m113 -426 c15 -57 47 -164 70 -238 l43 -135 -145
-3 c-80 -1 -148 -1 -150 2 -3 2 23 89 56 193 33 103 65 209 72 236 6 26 14 47
18 47 4 0 20 -46 36 -102z"/>
<path d="M10832 5901 c-66 -23 -116 -70 -139 -130 -16 -42 -18 -94 -18 -581
l0 -535 125 0 125 0 5 235 5 235 80 3 81 2 31 -52 c17 -29 66 -120 108 -203
43 -82 89 -167 102 -187 l23 -38 136 0 136 0 -6 23 c-3 13 -30 66 -59 118
-120 209 -185 328 -191 347 -5 16 6 29 58 66 94 67 140 143 160 267 8 44 -16
173 -43 234 -28 64 -109 140 -189 178 l-67 32 -205 3 c-180 2 -211 0 -258 -17z
m371 -200 c56 -9 89 -37 123 -103 30 -59 30 -99 0 -163 -46 -98 -83 -114 -272
-115 -93 0 -113 3 -118 16 -8 21 -8 185 1 263 5 51 11 65 30 78 46 30 139 40
236 24z"/>
<path d="M12219 5893 c-2 -16 -2 -300 1 -633 l5 -605 118 -3 c90 -2 117 0 118
10 0 7 0 56 -1 108 -1 53 3 107 8 121 17 43 165 240 174 231 4 -4 45 -69 91
-143 45 -75 109 -179 142 -232 l60 -97 137 0 c75 0 139 4 142 8 3 4 -41 78
-97 163 -233 353 -311 475 -315 495 -4 21 26 69 261 409 50 72 98 141 109 154
10 13 18 28 18 32 0 5 -54 9 -120 9 l-120 0 -31 -42 c-17 -24 -124 -182 -237
-352 l-207 -309 -7 49 c-4 27 -7 173 -7 324 0 151 0 287 0 303 l-1 27 -119 0
-119 0 -3 -27z"/>
<path d="M7388 3573 c-46 -4 -47 -5 -50 -41 -2 -20 -2 -308 0 -640 l2 -603
123 3 122 3 3 258 2 257 235 0 235 0 2 -257 3 -258 100 -3 c55 -2 110 0 123 3
l22 5 0 628 c0 345 -4 632 -8 637 -4 6 -54 9 -124 7 l-118 -3 -2 -267 -3 -267
-232 -3 -233 -2 0 270 0 270 -27 0 c-16 0 -50 2 -78 4 -27 2 -71 2 -97 -1z"/>
<path d="M8943 3572 c-25 -2 -34 -9 -39 -27 -3 -12 -4 -222 -2 -466 4 -435 4
-445 26 -498 42 -100 112 -173 214 -225 91 -47 161 -59 288 -54 172 8 302 73
380 191 74 110 73 107 75 614 1 248 -1 457 -5 463 -5 9 -40 10 -129 5 l-121
-8 0 -444 c0 -480 0 -481 -55 -535 -47 -47 -108 -70 -183 -70 -37 1 -80 5 -95
11 -47 18 -116 90 -128 133 -6 25 -10 197 -10 473 l0 433 -32 6 c-32 6 -122 5
-184 -2z"/>
<path d="M10623 3572 l-113 -3 0 -518 c0 -559 1 -575 54 -643 32 -43 103 -82
175 -97 30 -6 137 -12 237 -12 157 0 190 3 239 20 139 49 211 151 222 317 9
123 -38 238 -119 292 -21 13 -38 27 -38 31 0 3 22 30 49 59 64 69 84 113 89
194 10 159 -75 295 -212 341 -35 11 -410 24 -583 19z m490 -242 c55 -43 63
-169 14 -217 -32 -32 -85 -42 -234 -42 -79 -1 -114 3 -120 12 -4 6 -9 69 -11
140 l-4 127 165 0 c150 0 167 -2 190 -20z m28 -512 c52 -58 61 -153 24 -232
-30 -63 -53 -71 -190 -71 -128 0 -172 12 -195 55 -9 17 -16 186 -11 262 1 15
17 18 139 20 186 5 202 2 233 -34z"/>
</g>
</svg>
