<?xml version="1.0" standalone="no"?>
<!DOCTYPE svg PUBLIC "-//W3C//DTD SVG 20010904//EN"
 "http://www.w3.org/TR/2001/REC-SVG-20010904/DTD/svg10.dtd">
<svg version="1.0" xmlns="http://www.w3.org/2000/svg"
 width="750.000000pt" height="922.000000pt" viewBox="0 0 750.000000 922.000000"
 preserveAspectRatio="xMidYMid meet">

<g transform="translate(0.000000,922.000000) scale(0.100000,-0.100000)"
fill="#000000" stroke="none">
<path d="M3389 8793 c-728 -732 -766 -775 -874 -998 -101 -209 -143 -375 -152
-606 -11 -280 40 -526 160 -767 96 -193 120 -220 1002 -1112 345 -349 634
-645 643 -658 15 -23 10 -28 -379 -419 -698 -699 -1638 -1623 -1651 -1623 -19
0 -1013 1001 -1089 1097 -159 201 -240 433 -240 692 0 140 18 254 58 364 40
112 127 275 188 352 66 83 433 455 449 454 6 0 224 -210 484 -467 l472 -467
-179 -185 -179 -185 -292 290 -291 290 -34 -39 c-43 -49 -118 -193 -141 -271
-23 -79 -21 -199 5 -297 25 -95 50 -146 111 -223 62 -77 625 -635 642 -635 14
-1 1048 1035 1177 1178 l73 82 -923 925 c-507 509 -926 925 -930 925 -17 0
-922 -941 -977 -1015 -151 -203 -278 -481 -330 -720 -14 -65 -17 -131 -17
-350 0 -265 1 -272 29 -380 36 -141 96 -306 153 -420 93 -186 134 -242 329
-450 222 -236 1264 -1281 1376 -1379 l78 -68 57 48 c31 27 902 891 1935 1919
1033 1029 1884 1871 1891 1873 19 4 373 -359 451 -463 80 -107 167 -279 195
-388 34 -130 53 -285 46 -362 -21 -227 -109 -470 -230 -634 -26 -35 -650 -668
-1386 -1405 l-1338 -1341 -170 170 c-94 93 -171 175 -171 182 0 16 332 355
1465 1493 1074 1079 1175 1186 1228 1291 76 152 91 301 43 442 -33 99 -68 168
-118 236 l-41 53 -1748 -1748 c-962 -962 -1749 -1755 -1749 -1762 0 -13 921
-937 1133 -1136 122 -114 128 -118 149 -104 38 25 1480 1461 2212 2203 998
1011 1052 1072 1169 1305 80 159 124 280 159 440 20 94 22 132 23 355 0 222
-3 263 -23 364 -32 158 -82 303 -157 453 -120 241 -176 307 -719 855 l-418
423 -677 -671 c-372 -369 -684 -675 -694 -680 -14 -8 -127 100 -700 673 -375
376 -720 728 -765 783 -46 55 -96 127 -113 161 -83 174 -101 479 -38 644 28
74 93 198 133 254 42 59 296 333 465 501 l131 130 213 -215 c280 -284 374
-391 415 -473 74 -154 110 -325 98 -480 -9 -123 -15 -147 -35 -147 -18 0 -57
39 -445 448 -137 144 -251 262 -253 262 -16 0 -209 -247 -235 -299 -19 -40
-22 -62 -22 -171 0 -108 3 -130 21 -165 20 -38 255 -286 796 -840 l234 -240
44 39 c64 57 171 178 245 276 155 206 255 479 276 757 26 339 -28 602 -181
880 -107 194 -152 245 -670 766 -272 273 -500 497 -506 497 -5 0 -175 -165
-376 -367z"/>
</g>
</svg>
